<svg width="40" height="48" viewBox="0 0 40 48" fill="none" xmlns="http://www.w3.org/2000/svg">
<path d="M9.09979 40.1818V46H8.39524V40.8068H5.46342V46H4.75888V40.1818H9.09979ZM10.43 47.6364V41.6364H11.0778V42.3295H11.1573C11.2066 42.2538 11.2747 42.1572 11.3619 42.0398C11.4509 41.9205 11.5778 41.8144 11.7425 41.7216C11.9092 41.6269 12.1346 41.5795 12.4187 41.5795C12.7861 41.5795 13.11 41.6714 13.3903 41.8551C13.6706 42.0388 13.8893 42.2992 14.0465 42.6364C14.2037 42.9735 14.2823 43.3712 14.2823 43.8295C14.2823 44.2917 14.2037 44.6922 14.0465 45.0312C13.8893 45.3684 13.6715 45.6297 13.3931 45.8153C13.1147 45.9991 12.7937 46.0909 12.43 46.0909C12.1497 46.0909 11.9253 46.0445 11.7567 45.9517C11.5882 45.857 11.4585 45.75 11.3675 45.6307C11.2766 45.5095 11.2066 45.4091 11.1573 45.3295H11.1005V47.6364H10.43ZM11.0891 43.8182C11.0891 44.1477 11.1374 44.4384 11.234 44.6903C11.3306 44.9403 11.4717 45.1364 11.6573 45.2784C11.8429 45.4186 12.0702 45.4886 12.3391 45.4886C12.6194 45.4886 12.8533 45.4148 13.0408 45.267C13.2302 45.1174 13.3723 44.9167 13.467 44.6648C13.5636 44.411 13.6119 44.1288 13.6119 43.8182C13.6119 43.5114 13.5645 43.2348 13.4698 42.9886C13.377 42.7405 13.2359 42.5445 13.0465 42.4006C12.859 42.2547 12.6232 42.1818 12.3391 42.1818C12.0664 42.1818 11.8372 42.2509 11.6516 42.3892C11.466 42.5256 11.3259 42.7169 11.2312 42.9631C11.1365 43.2074 11.0891 43.4924 11.0891 43.8182ZM17.0778 46.0909C16.6838 46.0909 16.3382 45.9972 16.0408 45.8097C15.7454 45.6222 15.5143 45.3598 15.3477 45.0227C15.1829 44.6856 15.1005 44.2917 15.1005 43.8409C15.1005 43.3864 15.1829 42.9896 15.3477 42.6506C15.5143 42.3116 15.7454 42.0483 16.0408 41.8608C16.3382 41.6733 16.6838 41.5795 17.0778 41.5795C17.4717 41.5795 17.8164 41.6733 18.1119 41.8608C18.4092 42.0483 18.6403 42.3116 18.805 42.6506C18.9717 42.9896 19.055 43.3864 19.055 43.8409C19.055 44.2917 18.9717 44.6856 18.805 45.0227C18.6403 45.3598 18.4092 45.6222 18.1119 45.8097C17.8164 45.9972 17.4717 46.0909 17.0778 46.0909ZM17.0778 45.4886C17.377 45.4886 17.6232 45.4119 17.8164 45.2585C18.0096 45.1051 18.1526 44.9034 18.2454 44.6534C18.3382 44.4034 18.3846 44.1326 18.3846 43.8409C18.3846 43.5492 18.3382 43.2775 18.2454 43.0256C18.1526 42.7737 18.0096 42.5701 17.8164 42.4148C17.6232 42.2595 17.377 42.1818 17.0778 42.1818C16.7785 42.1818 16.5323 42.2595 16.3391 42.4148C16.146 42.5701 16.003 42.7737 15.9102 43.0256C15.8174 43.2775 15.771 43.5492 15.771 43.8409C15.771 44.1326 15.8174 44.4034 15.9102 44.6534C16.003 44.9034 16.146 45.1051 16.3391 45.2585C16.5323 45.4119 16.7785 45.4886 17.0778 45.4886ZM21.8512 47.4886V40.1818H22.5217V47.4886H21.8512ZM21.8512 46.0909C21.5558 46.0909 21.2868 46.0379 21.0444 45.9318C20.802 45.8239 20.5936 45.6714 20.4194 45.4744C20.2451 45.2756 20.1107 45.0379 20.016 44.7614C19.9213 44.4848 19.8739 44.178 19.8739 43.8409C19.8739 43.5 19.9213 43.1913 20.016 42.9148C20.1107 42.6364 20.2451 42.3977 20.4194 42.1989C20.5936 42 20.802 41.8475 21.0444 41.7415C21.2868 41.6335 21.5558 41.5795 21.8512 41.5795H22.0558V46.0909H21.8512ZM21.8512 45.4886H21.9648V42.1818H21.8512C21.6277 42.1818 21.4336 42.2273 21.2688 42.3182C21.104 42.4072 20.9677 42.5294 20.8597 42.6847C20.7537 42.8381 20.6741 43.0142 20.6211 43.2131C20.57 43.4119 20.5444 43.6212 20.5444 43.8409C20.5444 44.1326 20.5908 44.4034 20.6836 44.6534C20.7764 44.9034 20.9194 45.1051 21.1126 45.2585C21.3058 45.4119 21.552 45.4886 21.8512 45.4886ZM22.5217 46.0909H22.3171V41.5795H22.5217C22.8171 41.5795 23.0861 41.6335 23.3285 41.7415C23.5709 41.8475 23.7792 42 23.9535 42.1989C24.1277 42.3977 24.2622 42.6364 24.3569 42.9148C24.4516 43.1913 24.4989 43.5 24.4989 43.8409C24.4989 44.178 24.4516 44.4848 24.3569 44.7614C24.2622 45.0379 24.1277 45.2756 23.9535 45.4744C23.7792 45.6714 23.5709 45.8239 23.3285 45.9318C23.0861 46.0379 22.8171 46.0909 22.5217 46.0909ZM22.5217 45.4886C22.747 45.4886 22.9412 45.4451 23.104 45.358C23.2688 45.2689 23.4042 45.1477 23.5103 44.9943C23.6183 44.839 23.6978 44.6629 23.7489 44.4659C23.802 44.267 23.8285 44.0587 23.8285 43.8409C23.8285 43.5492 23.7821 43.2775 23.6893 43.0256C23.5965 42.7737 23.4535 42.5701 23.2603 42.4148C23.0671 42.2595 22.8209 42.1818 22.5217 42.1818H22.408V45.4886H22.5217ZM25.5238 46V41.6364H26.1942V46H25.5238ZM25.8647 40.9091C25.734 40.9091 25.6213 40.8646 25.5266 40.7756C25.4338 40.6866 25.3874 40.5795 25.3874 40.4545C25.3874 40.3295 25.4338 40.2225 25.5266 40.1335C25.6213 40.0445 25.734 40 25.8647 40C25.9954 40 26.1071 40.0445 26.1999 40.1335C26.2946 40.2225 26.342 40.3295 26.342 40.4545C26.342 40.5795 26.2946 40.6866 26.1999 40.7756C26.1071 40.8646 25.9954 40.9091 25.8647 40.9091ZM27.0359 46V45.375H27.195C27.3256 45.375 27.4345 45.3494 27.5217 45.2983C27.6088 45.2453 27.6789 45.1534 27.7319 45.0227C27.7868 44.8902 27.8285 44.7064 27.8569 44.4716C27.8872 44.2348 27.909 43.9337 27.9222 43.5682L28.0018 41.6364H30.9109V46H30.2404V42.2614H28.6381L28.57 43.8182C28.5548 44.1761 28.5226 44.4915 28.4734 44.7642C28.426 45.035 28.3531 45.2623 28.2546 45.446C28.158 45.6297 28.0292 45.768 27.8683 45.8608C27.7073 45.9536 27.5056 46 27.2631 46H27.0359ZM32.7205 43.2159H33.9705C34.4819 43.2159 34.873 43.3456 35.1438 43.6051C35.4147 43.8646 35.5501 44.1932 35.5501 44.5909C35.5501 44.8523 35.4895 45.09 35.3683 45.304C35.247 45.5161 35.069 45.6856 34.8342 45.8125C34.5993 45.9375 34.3114 46 33.9705 46H32.141V41.6364H32.8114V45.375H33.9705C34.2357 45.375 34.4535 45.3049 34.6239 45.1648C34.7944 45.0246 34.8796 44.8447 34.8796 44.625C34.8796 44.3939 34.7944 44.2055 34.6239 44.0597C34.4535 43.9138 34.2357 43.8409 33.9705 43.8409H32.7205V43.2159Z" fill="#706F6F"/>
<path fill-rule="evenodd" clip-rule="evenodd" d="M30.5172 29.4138C30.5172 24.957 26.905 21.3448 22.4483 21.3448C20.6964 21.3448 18.8208 21.3448 17.069 21.3448C12.6122 21.3448 9 24.957 9 29.4138V31.2069C9 32.1976 9.80241 33 10.7931 33H28.7241C29.7148 33 30.5172 32.1976 30.5172 31.2069V29.4138ZM28.7241 31.2069H10.7931C10.7931 30.7371 10.7931 30.114 10.7931 29.4138C10.7931 25.9477 13.6029 23.1379 17.069 23.1379C18.8208 23.1379 20.6964 23.1379 22.4483 23.1379C25.9143 23.1379 28.7241 25.9477 28.7241 29.4138V31.2069ZM19.7586 7C16.2952 7 13.4828 9.81248 13.4828 13.2759C13.4828 16.7392 16.2952 19.5517 19.7586 19.5517C23.222 19.5517 26.0345 16.7392 26.0345 13.2759C26.0345 9.81248 23.222 7 19.7586 7ZM19.7586 8.7931C22.2331 8.7931 24.2414 10.8014 24.2414 13.2759C24.2414 15.7503 22.2331 17.7586 19.7586 17.7586C17.2841 17.7586 15.2759 15.7503 15.2759 13.2759C15.2759 10.8014 17.2841 8.7931 19.7586 8.7931Z" fill="#706F6F"/>
</svg>
