<svg width="28" height="28" viewBox="0 0 28 28" fill="none" xmlns="http://www.w3.org/2000/svg">
<path fill-rule="evenodd" clip-rule="evenodd" d="M11.6434 2.02612C11.9397 2.17432 12.0599 2.53472 11.9117 2.83111L7.09585 12.4628H20.9042L16.0884 2.83111C15.9402 2.53472 16.0603 2.17432 16.3567 2.02612C16.6531 1.87793 17.0135 1.99806 17.1617 2.29445L22.2458 12.4628H24.5H27.125C27.4564 12.4628 27.725 12.7314 27.725 13.0628C27.725 13.3941 27.4564 13.6628 27.125 13.6628H25.0371L23.7839 24.9415L23.7246 25.4753H23.1875H4.81252H4.2755L4.21619 24.9415L2.963 13.6628H0.875024C0.543654 13.6628 0.275024 13.3941 0.275024 13.0628C0.275024 12.7314 0.543654 12.4628 0.875024 12.4628H3.50002H5.7542L10.8384 2.29445C10.9866 1.99806 11.347 1.87793 11.6434 2.02612ZM4.17038 13.6628L5.34955 24.2753H22.6505L23.8297 13.6628H21.875H6.12502H4.17038ZM9.40615 17.0002C9.40615 16.6378 9.69997 16.344 10.0624 16.344H17.9374C18.2998 16.344 18.5937 16.6378 18.5937 17.0002C18.5937 17.3626 18.2998 17.6565 17.9374 17.6565H10.0624C9.69997 17.6565 9.40615 17.3626 9.40615 17.0002ZM10.0624 18.969C9.69997 18.969 9.40615 19.2628 9.40615 19.6252C9.40615 19.9877 9.69997 20.2815 10.0624 20.2815H17.9374C18.2998 20.2815 18.5937 19.9877 18.5937 19.6252C18.5937 19.2628 18.2998 18.969 17.9374 18.969H10.0624Z" fill="#F9FAFD"/>
</svg>
