<svg width="32" height="32" viewBox="0 0 32 32" fill="none" xmlns="http://www.w3.org/2000/svg">
<mask id="path-1-inside-1_1_4131" fill="white">
<path fill-rule="evenodd" clip-rule="evenodd" d="M16 0.133301L16.9131 0.475692C20.3063 1.74817 23.9008 2.39997 27.5248 2.39997H29.6V5.34365C29.6 14.0744 26.0029 22.4195 19.6555 28.4142L16 31.8666L12.3445 28.4142C5.99714 22.4195 2.40002 14.0744 2.40002 5.34365V2.39997H4.47525C8.09925 2.39997 11.6937 1.74817 15.087 0.475692L16 0.133301ZM24.136 9.6833C24.4032 9.36274 24.3598 8.88631 24.0393 8.61918C23.7187 8.35204 23.2423 8.39535 22.9752 8.71591L15.9493 17.147L12.001 13.1987C11.7059 12.9036 11.2275 12.9036 10.9324 13.1987C10.6374 13.4937 10.6374 13.9721 10.9324 14.2672L15.4658 18.8005L16.0508 19.3856L16.5805 18.75L24.136 9.6833Z"/>
</mask>
<path fill-rule="evenodd" clip-rule="evenodd" d="M16 0.133301L16.9131 0.475692C20.3063 1.74817 23.9008 2.39997 27.5248 2.39997H29.6V5.34365C29.6 14.0744 26.0029 22.4195 19.6555 28.4142L16 31.8666L12.3445 28.4142C5.99714 22.4195 2.40002 14.0744 2.40002 5.34365V2.39997H4.47525C8.09925 2.39997 11.6937 1.74817 15.087 0.475692L16 0.133301ZM24.136 9.6833C24.4032 9.36274 24.3598 8.88631 24.0393 8.61918C23.7187 8.35204 23.2423 8.39535 22.9752 8.71591L15.9493 17.147L12.001 13.1987C11.7059 12.9036 11.2275 12.9036 10.9324 13.1987C10.6374 13.4937 10.6374 13.9721 10.9324 14.2672L15.4658 18.8005L16.0508 19.3856L16.5805 18.75L24.136 9.6833Z" fill="#29B6F9"/>
<path d="M16.9131 0.475692L17.4437 -0.939205L17.4437 -0.939206L16.9131 0.475692ZM16 0.133301L16.5306 -1.2816L16 -1.48057L15.4694 -1.2816L16 0.133301ZM29.6 2.39997H31.1111V0.888855H29.6V2.39997ZM19.6555 28.4142L18.618 27.3156L19.6555 28.4142ZM16 31.8666L14.9625 32.9652L16 33.9452L17.0376 32.9652L16 31.8666ZM12.3445 28.4142L11.3069 29.5128L12.3445 28.4142ZM2.40002 2.39997V0.888855H0.888913V2.39997H2.40002ZM15.087 0.475692L14.5564 -0.939207L14.5564 -0.939206L15.087 0.475692ZM24.136 9.6833L25.2969 10.6507V10.6507L24.136 9.6833ZM22.9752 8.71591L24.136 9.6833V9.6833L22.9752 8.71591ZM15.9493 17.147L14.8807 18.2155L16.0508 19.3856L17.1101 18.1144L15.9493 17.147ZM12.001 13.1987L13.0695 12.1302L13.0695 12.1302L12.001 13.1987ZM10.9324 13.1987L9.86393 12.1302L9.86392 12.1302L10.9324 13.1987ZM10.9324 14.2672L9.86392 15.3357H9.86392L10.9324 14.2672ZM15.4658 18.8005L14.3973 19.8691H14.3973L15.4658 18.8005ZM16.0508 19.3856L14.9823 20.4541L16.1523 21.6241L17.2117 20.353L16.0508 19.3856ZM16.5805 18.75L17.7413 19.7174H17.7413L16.5805 18.75ZM17.4437 -0.939206L16.5306 -1.2816L15.4694 1.5482L16.3825 1.89059L17.4437 -0.939206ZM27.5248 0.888855C24.082 0.888855 20.6673 0.269645 17.4437 -0.939205L16.3825 1.89059C19.9454 3.22669 23.7196 3.91108 27.5248 3.91108V0.888855ZM29.6 0.888855H27.5248V3.91108H29.6V0.888855ZM31.1111 5.34365V2.39997H28.0889V5.34365H31.1111ZM20.6931 29.5128C27.3427 23.2326 31.1111 14.4902 31.1111 5.34365H28.0889C28.0889 13.6587 24.6631 21.6063 18.618 27.3156L20.6931 29.5128ZM17.0376 32.9652L20.6931 29.5128L18.618 27.3156L14.9625 30.768L17.0376 32.9652ZM11.3069 29.5128L14.9625 32.9652L17.0376 30.768L13.3821 27.3156L11.3069 29.5128ZM0.888913 5.34365C0.888913 14.4901 4.65732 23.2326 11.3069 29.5128L13.3821 27.3156C7.33696 21.6063 3.91114 13.6586 3.91114 5.34365H0.888913ZM0.888913 2.39997V5.34365H3.91114V2.39997H0.888913ZM4.47525 0.888855H2.40002V3.91108H4.47525V0.888855ZM14.5564 -0.939206C11.3328 0.269644 7.91805 0.888855 4.47525 0.888855V3.91108C8.28045 3.91108 12.0546 3.22669 15.6176 1.89059L14.5564 -0.939206ZM15.4694 -1.2816L14.5564 -0.939207L15.6176 1.89059L16.5306 1.5482L15.4694 -1.2816ZM23.0719 9.78004C22.7513 9.51291 22.708 9.03648 22.9752 8.71592L25.2969 10.6507C26.0983 9.689 25.9684 8.25972 25.0067 7.45831L23.0719 9.78004ZM24.136 9.6833C23.8689 10.0039 23.3925 10.0472 23.0719 9.78004L25.0067 7.45831C24.045 6.6569 22.6157 6.78683 21.8143 7.74853L24.136 9.6833ZM17.1101 18.1144L24.136 9.6833L21.8143 7.74852L14.7884 16.1796L17.1101 18.1144ZM10.9324 14.2672L14.8807 18.2155L17.0178 16.0785L13.0695 12.1302L10.9324 14.2672ZM12.001 14.2672C11.7059 14.5623 11.2275 14.5623 10.9324 14.2672L13.0695 12.1302C12.1843 11.245 10.7491 11.245 9.86393 12.1302L12.001 14.2672ZM12.001 13.1987C12.296 13.4937 12.296 13.9721 12.001 14.2672L9.86392 12.1302C8.97874 13.0154 8.97873 14.4505 9.86392 15.3357L12.001 13.1987ZM16.5343 17.732L12.001 13.1987L9.86392 15.3357L14.3973 19.8691L16.5343 17.732ZM17.1193 18.317L16.5343 17.732L14.3973 19.8691L14.9823 20.4541L17.1193 18.317ZM15.4196 17.7826L14.8899 18.4182L17.2117 20.353L17.7413 19.7174L15.4196 17.7826ZM22.9752 8.71591L15.4196 17.7826L17.7413 19.7174L25.2969 10.6507L22.9752 8.71591Z" fill="#29B6F9" mask="url(#path-1-inside-1_1_4131)"/>
</svg>
