<svg width="120" height="28" viewBox="0 0 120 28" fill="none" xmlns="http://www.w3.org/2000/svg">
<path d="M76.2652 17.2075C74.1757 17.2075 72.4754 15.5067 72.4754 13.4176C72.4754 11.3282 74.1757 9.62783 76.2652 9.62783C78.3547 9.62783 80.0546 11.3282 80.0546 13.4176C80.0546 15.5275 78.3338 17.2075 76.2652 17.2075ZM76.2652 7.37417C72.9262 7.37417 70.2222 10.0787 70.2222 13.4176C70.2222 16.7566 72.9262 19.4607 76.2652 19.4607C79.6042 19.4607 82.3082 16.7566 82.3082 13.4176C82.3082 10.0991 79.6042 7.37417 76.2652 7.37417ZM68.8702 17.5145H69.3618V19.7881H68.8702C66.2687 19.7881 64.1379 17.6578 64.1379 15.0563V4.67014H66.412V7.70208H69.341V9.97615H66.412V15.0767C66.412 16.4083 67.5182 17.5145 68.8702 17.5145ZM96.5654 17.2075C94.4759 17.2075 92.776 15.5067 92.776 13.4176C92.776 11.3282 94.4759 9.62783 96.5654 9.62783C98.6549 9.62783 100.355 11.3282 100.355 13.4176C100.335 15.5275 98.6345 17.2075 96.5654 17.2075ZM96.5654 7.37417C93.2264 7.37417 90.5224 10.0787 90.5224 13.4176C90.5224 16.7566 93.2264 19.4607 96.5654 19.4607C99.9044 19.4607 102.608 16.7566 102.608 13.4176C102.608 10.0991 99.9044 7.37417 96.5654 7.37417ZM113.957 17.2075C111.868 17.2075 110.168 15.5067 110.168 13.4176C110.168 11.3282 111.868 9.62783 113.957 9.62783C116.046 9.62783 117.747 11.3282 117.747 13.4176C117.747 15.5275 116.026 17.207 113.957 17.207M113.957 7.37417C110.618 7.37417 107.914 10.0787 107.914 13.4176C107.914 16.7566 110.618 19.4607 113.957 19.4607C115.432 19.4607 116.784 18.9277 117.829 18.047V19.2353H120V13.6018V13.4172C120 10.0986 117.296 7.37417 113.957 7.37417ZM88.5558 7.37462H89.6416V9.64824H88.5558C87.2042 9.64824 86.0976 10.7549 86.0976 12.1064V19.3173H83.824V12.1064C83.824 9.50492 85.9543 7.37462 88.5558 7.37462ZM104.125 4.36309H106.398V19.2761H104.125V4.36309ZM49.0204 12.4135V19.604H46.7463V12.4135C46.7463 11.0615 45.6401 9.95529 44.2881 9.95529C42.9365 9.95529 41.8299 11.0615 41.8299 12.4135V19.6035H39.5563V12.4135C39.5563 11.0615 38.4496 9.95529 37.0981 9.95529C35.7465 9.95529 34.6399 11.0615 34.6399 12.4135V19.6035H32.3662V12.4135C32.3662 9.81152 34.4965 7.68122 37.0777 7.68122C38.5322 7.68122 39.8021 8.31618 40.6829 9.34074C41.5637 8.31618 42.8336 7.68122 44.2886 7.68122C46.8896 7.68122 49.0204 9.81152 49.0204 12.4135ZM56.5996 17.5145C54.5101 17.5145 52.8097 15.8142 52.8097 13.7247C52.8097 11.6352 54.5105 9.93488 56.5996 9.93488C58.689 9.93488 60.3894 11.6357 60.3894 13.7247C60.3894 15.8142 58.6686 17.5145 56.5996 17.5145ZM56.5996 7.68167C53.2402 7.68167 50.5357 10.3857 50.5357 13.7247C50.5357 17.0637 53.2402 19.7677 56.5791 19.7677C59.9181 19.7677 62.6222 17.0637 62.6222 13.7247C62.6426 10.4061 59.9385 7.68167 56.5996 7.68167ZM13.7451 0C6.14552 0 0 6.14552 0 13.7451C0 21.3447 6.14552 27.4907 13.7451 27.4907C21.3451 27.4907 27.4907 21.3451 27.4907 13.7451C27.4907 6.18634 21.4268 0 13.7451 0Z" fill="black"/>
<path d="M17.8425 3.37988L13.766 16.9L13.7452 16.9204L13.7043 16.9L9.6279 3.37988L4.36316 20.6898H5.34644C5.34644 20.6898 6.00227 17.6783 7.08805 15.8759C7.68219 14.8926 8.58339 14.0935 9.79163 14.1139C10.652 14.1348 11.3895 14.6055 12.3115 15.8963C12.5161 16.183 12.7619 16.6542 13.0077 17.105C13.3973 17.8624 13.7248 18.6412 13.7248 18.6412C13.7248 18.6412 14.5851 16.6746 15.1385 15.8963C16.0601 14.6055 16.7975 14.1348 17.6579 14.1139C18.8666 14.0935 19.7882 14.8926 20.3619 15.8759C21.4477 17.6783 22.1035 20.6898 22.1035 20.6898H23.0864L17.8425 3.37988Z" fill="white"/>
</svg>
