<svg width="99" height="48" viewBox="0 0 99 48" fill="none" xmlns="http://www.w3.org/2000/svg">
<path d="M23.5526 47.1041C36.5598 47.1041 47.1053 36.5592 47.1053 23.552C47.1053 10.5449 36.5604 0 23.5526 0C10.5449 0 0 10.5449 0 23.552C0 36.5592 10.5449 47.1041 23.5526 47.1041Z" fill="#A70B52"/>
<path d="M29.284 31.8404H24.4066V13.4062H22.5978V33.6594H24.4066V33.6474H29.284V31.8404Z" fill="white"/>
<path d="M41.4615 24.3063H29.3161V22.4975H43.2405C43.259 22.8472 43.268 23.1975 43.268 23.552C43.268 34.4412 34.4406 43.268 23.552 43.268C12.6633 43.268 3.83594 34.4412 3.83594 23.552C3.83594 12.6627 12.6633 3.83594 23.5525 3.83594C23.8396 3.83594 24.126 3.8419 24.4107 3.85444L24.4083 5.64951C24.1232 5.63635 23.8379 5.62979 23.5525 5.62982C13.6546 5.62982 5.62982 13.654 5.62982 23.552C5.62982 33.4505 13.654 41.4741 23.5525 41.4741C33.1808 41.4741 41.0355 33.882 41.4568 24.357L41.4615 24.3063Z" fill="white"/>
<path d="M16.1963 18.8633C16.9311 18.8633 17.6357 18.5714 18.1553 18.0518C18.6749 17.5322 18.9668 16.8275 18.9668 16.0928C18.9668 15.358 18.6749 14.6533 18.1553 14.1337C17.6357 13.6142 16.9311 13.3223 16.1963 13.3223C15.4615 13.3223 14.7568 13.6142 14.2372 14.1337C13.7177 14.6533 13.4258 15.358 13.4258 16.0928C13.4258 16.8275 13.7177 17.5322 14.2372 18.0518C14.7568 18.5714 15.4615 18.8633 16.1963 18.8633Z" fill="white"/>
<path d="M58.8008 35.1132H75.6302V30.0305H64.9797V11.8303H58.8008V35.1132ZM95.9639 13.4696C94.0346 11.9747 91.5502 11.2168 88.5855 11.2168C85.0651 11.2168 82.1237 12.2981 80.0785 14.3415C77.9439 16.4773 76.8136 19.6235 76.8136 23.4398C76.8136 27.5169 78.0084 30.9573 80.1776 33.1247C81.8808 34.8273 84.1497 35.7255 86.7462 35.7255C92.446 35.7255 93.7571 32.309 93.7571 32.309V35.112H98.9042V21.9628H88.6583V26.0775H93.3739C93.3739 26.0775 93.4193 31.258 88.552 31.258C87.3155 31.258 86.2139 30.8093 85.3665 29.9619C84.0459 28.6424 83.3476 26.4189 83.3476 23.5365C83.3476 18.7623 85.2453 15.9122 88.4225 15.9122C90.4074 15.9122 91.8993 17.1308 92.2818 18.9778H98.8367C98.4972 16.2941 97.7608 14.8953 95.9639 13.4696Z" fill="#808183"/>
</svg>
