<svg width="40" height="49" viewBox="0 0 40 49" fill="none" xmlns="http://www.w3.org/2000/svg">
<path fill-rule="evenodd" clip-rule="evenodd" d="M40 41.6667C40 33.3817 33.285 26.6667 25 26.6667C21.7433 26.6667 18.2567 26.6667 15 26.6667C6.715 26.6667 0 33.3817 0 41.6667V45C0 46.8417 1.49167 48.3333 3.33333 48.3333H36.6667C38.5083 48.3333 40 46.8417 40 45V41.6667ZM36.6667 45H3.33333C3.33333 44.1267 3.33333 42.9683 3.33333 41.6667C3.33333 35.2233 8.55667 30 15 30C18.2567 30 21.7433 30 25 30C31.4433 30 36.6667 35.2233 36.6667 41.6667V45ZM20 0C13.5617 0 8.33333 5.22833 8.33333 11.6667C8.33333 18.105 13.5617 23.3333 20 23.3333C26.4383 23.3333 31.6667 18.105 31.6667 11.6667C31.6667 5.22833 26.4383 0 20 0ZM20 3.33333C24.6 3.33333 28.3333 7.06667 28.3333 11.6667C28.3333 16.2667 24.6 20 20 20C15.4 20 11.6667 16.2667 11.6667 11.6667C11.6667 7.06667 15.4 3.33333 20 3.33333Z" fill="#F9FAFD"/>
</svg>
