<svg width="52" height="47" viewBox="0 0 52 47" fill="none" xmlns="http://www.w3.org/2000/svg">
<path d="M19.1893 40.8484C19.8702 40.8484 20.4274 40.2912 20.4274 39.6103V27.2293C20.4274 26.5484 19.8702 25.9912 19.1893 25.9912C18.5083 25.9912 17.9512 26.5484 17.9512 27.2293V39.6103C17.9512 40.2912 18.5083 40.8484 19.1893 40.8484Z" fill="#F9FAFD"/>
<path d="M25.9998 40.8484C26.6808 40.8484 27.2379 40.2912 27.2379 39.6103V27.2293C27.2379 26.5484 26.6808 25.9912 25.9998 25.9912C25.3189 25.9912 24.7617 26.5484 24.7617 27.2293V39.6103C24.7617 40.2912 25.3189 40.8484 25.9998 40.8484Z" fill="#F9FAFD"/>
<path d="M32.8084 40.8484C33.4894 40.8484 34.0465 40.2912 34.0465 39.6103V27.2293C34.0465 26.5484 33.4894 25.9912 32.8084 25.9912C32.1275 25.9912 31.5703 26.5484 31.5703 27.2293V39.6103C31.5703 40.2912 32.1275 40.8484 32.8084 40.8484Z" fill="#F9FAFD"/>
<path d="M50.7619 20.4194H46.4286H5.57143H1.2381C0.557143 20.4194 0 20.9766 0 21.6575C0 22.3385 0.557143 22.8956 1.2381 22.8956H4.64286L10.5857 45.4909C10.7095 46.048 11.2048 46.4194 11.7619 46.4194H40.2381C40.7952 46.4194 41.2905 46.048 41.4143 45.4909L47.3571 22.8956H50.7619C51.4429 22.8956 52 22.3385 52 21.6575C52 20.9766 51.4429 20.4194 50.7619 20.4194ZM39.3095 43.9432H12.6905L7.18095 22.8956H44.819L39.3095 43.9432Z" fill="#F9FAFD"/>
<path d="M20.6737 0.548942L10.769 14.787C10.3975 15.3442 10.5213 16.1489 11.0785 16.5204C11.2642 16.6442 11.5118 16.768 11.7594 16.768C12.1309 16.768 12.5642 16.5823 12.7499 16.2108L22.6547 1.97275C23.0261 1.41561 22.9023 0.610847 22.3451 0.239419C21.788 -0.193915 21.0451 -0.00820038 20.6737 0.548942Z" fill="#F9FAFD"/>
<path d="M29.6527 0.239419C29.0956 0.610847 28.9717 1.41561 29.3432 1.97275L39.2479 16.2108C39.4956 16.5823 39.867 16.768 40.2384 16.768C40.486 16.768 40.7336 16.7061 40.9194 16.5204C41.4765 16.1489 41.6003 15.3442 41.2289 14.787L31.3241 0.548942C30.9527 -0.00820038 30.2098 -0.193915 29.6527 0.239419Z" fill="#F9FAFD"/>
</svg>
