<svg width="205" height="47" viewBox="0 0 205 47" fill="none" xmlns="http://www.w3.org/2000/svg">
<path d="M38.2302 22.2461C39.7147 26.8139 40.4954 31.58 40.5462 36.3807L36.9422 37.9253L37.3942 21.8778L37.8757 21.1555L38.2302 22.2461Z" fill="#051B32" stroke="#051B32" stroke-width="1.52354"/>
<path d="M7.35799 22.0188C5.87348 26.5866 5.09284 31.3527 5.04203 36.1534L8.64603 37.698L8.19398 21.6505L7.71245 20.9282L7.35799 22.0188Z" fill="#051B32" stroke="#051B32" stroke-width="1.52354"/>
<path d="M36.8581 33.2171H17.4013L25.8424 45.9545H36.8581V33.2171Z" fill="#0944D5" stroke="#051B32" stroke-width="1.52354"/>
<path d="M8.87835 33.2171H28.3351L19.894 45.9545H8.87835V33.2171Z" fill="#36C3BB" stroke="#051B32" stroke-width="1.52354"/>
<path d="M8.87835 2.63598C18.1682 1.45415 27.5703 1.45415 36.8601 2.63598V33.1052C27.5473 32.3726 18.1912 32.3726 8.87835 33.1052V2.63598Z" fill="#F9FAFD" stroke="#051B32" stroke-width="1.52354"/>
<path d="M16.7811 25.7979H28.7297V26.736L16.7811 25.9213V25.7979Z" fill="#051B32"/>
<path d="M1 8.97209V21.5007H18.039L22.7998 17.4916L27.3102 21.5007H44.5997V8.97209L44.2003 9.0134C29.9713 10.4854 15.6284 10.4854 1.39935 9.0134L1 8.97209Z" fill="#29B6F9" stroke="#051B32" stroke-width="1.52311"/>
<path d="M56.0643 28.7926C56.0643 28.7654 56.0643 28.7654 56.0643 28.7381V23.4811C56.0643 23.2087 56.0643 22.9363 56.0916 22.6911C56.0916 22.6094 56.0916 22.5549 56.1188 22.4732C56.146 22.2281 56.1733 21.9829 56.2278 21.7378C56.2278 21.6833 56.2278 21.6288 56.255 21.5744C56.4184 20.8117 56.6636 20.1307 57.0449 19.5042C57.0449 19.4497 57.0722 19.4225 57.0994 19.3953C57.2084 19.2046 57.3446 19.0139 57.4807 18.8505C57.508 18.796 57.5625 18.7415 57.5897 18.7143C58.2162 17.9516 59.0061 17.3251 59.9867 16.8621C60.0412 16.8348 60.0957 16.8076 60.1501 16.7803C60.368 16.6714 60.6132 16.5897 60.8583 16.508C60.9128 16.4807 60.9673 16.4535 61.0218 16.4535C61.8389 16.1538 62.7378 15.9632 63.7729 15.827C63.8001 15.827 63.8546 15.827 63.8818 15.827C64.2087 15.7725 64.5356 15.7453 64.8897 15.7453C64.9714 15.7453 65.0531 15.718 65.1348 15.718C65.4889 15.718 65.843 15.6908 66.1971 15.6908H72.5165C75.9213 15.6636 78.5363 16.29 80.3068 17.5703C80.3885 17.6247 80.4702 17.7065 80.5519 17.7609C80.6881 17.8971 80.8243 18.0061 80.9605 18.1423C81.0967 18.2512 81.1784 18.3602 81.2874 18.4964C81.3691 18.5781 81.478 18.6598 81.5325 18.7688C81.6687 18.905 81.7777 19.0684 81.8866 19.2318C81.9411 19.3135 81.9956 19.3953 82.0228 19.4497C82.1318 19.6404 82.2407 19.8583 82.3224 20.049C82.3497 20.1035 82.3769 20.1852 82.4042 20.2397C82.5131 20.4576 82.5948 20.7027 82.6765 20.9479C82.6765 20.9751 82.7038 21.0296 82.7038 21.0568C82.7855 21.3292 82.84 21.6016 82.8945 21.874C82.8945 21.9012 82.8945 21.9285 82.8945 21.9829C82.9489 22.2553 82.9762 22.5549 83.0034 22.8818V23.7262H76.793C76.7657 23.59 76.7385 23.4538 76.684 23.2904C76.684 23.2904 76.684 23.2632 76.6568 23.2359C76.6295 23.0997 76.5751 22.9908 76.5206 22.8546C76.5206 22.8273 76.4934 22.8001 76.4934 22.7729C76.4389 22.6639 76.3844 22.5549 76.3299 22.446C76.3027 22.4188 76.2754 22.3643 76.2482 22.337C76.1937 22.2553 76.1393 22.1736 76.0575 22.0919C76.0303 22.0374 75.9758 21.9829 75.9486 21.9285C75.8941 21.874 75.8396 21.8195 75.7579 21.7378C75.7034 21.6833 75.6217 21.6288 75.54 21.5471C75.4855 21.5199 75.4583 21.4926 75.4038 21.4382C74.4777 20.7572 73.0885 20.4303 71.2635 20.4576H67.6135C67.4229 20.4576 67.2322 20.4576 67.0415 20.4848C66.987 20.4848 66.9598 20.4848 66.9053 20.4848C66.7419 20.4848 66.5512 20.512 66.3878 20.512C66.3606 20.512 66.3333 20.5393 66.3061 20.5393C65.7613 20.5938 65.2983 20.7027 64.8624 20.8661C64.8352 20.8661 64.808 20.8661 64.7807 20.8661C64.6445 20.9206 64.5083 20.9751 64.3994 21.0296C64.3721 21.0568 64.3449 21.0568 64.3177 21.0841C63.8001 21.3292 63.3643 21.6561 63.0374 22.0374C63.0102 22.0646 63.0102 22.0919 62.983 22.1191C62.9012 22.2281 62.8468 22.3098 62.7923 22.4188C62.7651 22.4188 62.7651 22.446 62.7378 22.4732C62.5471 22.8001 62.4109 23.1814 62.3292 23.59C62.3292 23.59 62.3292 23.6173 62.302 23.6445C62.2748 23.7807 62.2748 23.9169 62.2475 24.0531C62.2475 24.0803 62.2475 24.1348 62.2475 24.162C62.2475 24.2982 62.2203 24.4344 62.2203 24.5978L62.2475 27.3762C62.2475 27.3762 62.2475 27.3762 62.2475 27.4034C62.2475 27.5669 62.2748 27.7031 62.302 27.8665C62.302 27.8937 62.302 27.8937 62.302 27.921C62.3292 28.0572 62.3565 28.2206 62.3837 28.3568C62.4109 28.384 62.4109 28.4113 62.4109 28.4113C62.4654 28.5475 62.4927 28.6837 62.5471 28.7926C62.5744 28.8198 62.5744 28.8471 62.6016 28.8743C62.6561 28.9833 62.6833 29.0922 62.7651 29.2012C62.7923 29.2284 62.8195 29.2829 62.8468 29.3101C62.9012 29.3919 62.9557 29.5008 63.0102 29.5825C63.0647 29.6098 63.0919 29.6642 63.1464 29.7187C63.2009 29.7732 63.2553 29.8549 63.3098 29.9094C63.3915 29.9639 63.4733 30.0456 63.555 30.1001C63.5822 30.1273 63.6367 30.1818 63.6639 30.209C64.6173 30.89 66.0065 31.2169 67.8042 31.1896H71.4814C71.6721 31.1896 71.8628 31.1896 72.0534 31.1896C72.0807 31.1896 72.1352 31.1896 72.1624 31.1624C72.3531 31.1624 72.5437 31.1624 72.7072 31.1351C72.7344 31.1351 72.7344 31.1351 72.7617 31.1351C73.3064 31.0534 73.7967 30.9445 74.2325 30.8083C74.2598 30.781 74.287 30.781 74.3143 30.781C74.4505 30.7266 74.5594 30.6721 74.6956 30.6176C74.7228 30.6176 74.7501 30.5904 74.7773 30.5904C75.2949 30.318 75.7307 29.9911 76.0575 29.6098C76.0575 29.5825 76.0848 29.5553 76.112 29.5281C76.1665 29.4463 76.2482 29.3374 76.3027 29.2284C76.3027 29.2284 76.3299 29.2012 76.3299 29.174C76.5206 28.8471 76.6568 28.493 76.7657 28.0844C76.7657 28.0572 76.7657 28.0299 76.7657 28.0027C76.7657 27.9754 76.7657 27.9482 76.793 27.921H83.0306V28.1661C83.0306 28.4385 83.0034 28.7109 83.0034 28.9833C82.9762 29.0378 82.9762 29.1195 82.9762 29.174C82.9489 29.4463 82.9217 29.6915 82.8672 29.9094C82.8672 29.9639 82.84 30.0184 82.84 30.0728C82.6765 30.8355 82.4042 31.5437 82.0501 32.143C82.0228 32.1974 81.9956 32.2247 81.9956 32.2792C81.8594 32.4426 81.7504 32.6333 81.6142 32.8239C81.5598 32.8512 81.5325 32.9057 81.5053 32.9601C80.8788 33.6956 80.0889 34.3221 79.1083 34.7851C79.0538 34.8124 78.9993 34.8396 78.9448 34.8668C78.6997 34.9758 78.4818 35.0575 78.2094 35.1665C78.1822 35.1665 78.1277 35.1937 78.0732 35.2209C77.256 35.4933 76.3299 35.684 75.3221 35.8202C75.2676 35.8202 75.2404 35.8202 75.1859 35.8202C74.859 35.8747 74.5322 35.9019 74.2053 35.9292C74.1236 35.9292 74.0419 35.9292 73.9602 35.9292C73.6061 35.9564 73.252 35.9564 72.8706 35.9564H66.5785C63.1736 36.0109 60.5587 35.3844 58.7882 34.0769C58.7065 34.0224 58.6248 33.9407 58.5431 33.8862C58.4069 33.7773 58.2434 33.6411 58.1072 33.5321C57.9983 33.4232 57.8893 33.287 57.7804 33.178C57.6987 33.0691 57.6169 32.9874 57.5352 32.9057C57.4263 32.7422 57.3173 32.5788 57.2084 32.4154C57.1539 32.3336 57.0994 32.2792 57.0449 32.1974C56.936 32.0068 56.8543 31.8161 56.7453 31.5982C56.7181 31.5437 56.6908 31.4892 56.6636 31.4348C56.5819 31.1896 56.5002 30.9717 56.4184 30.7266C56.3912 30.6721 56.3912 30.6448 56.364 30.5904C56.3095 30.318 56.2278 30.0728 56.2005 29.7732C56.1733 29.746 56.1733 29.7187 56.1733 29.6915C56.1188 29.3919 56.0916 29.0922 56.0643 28.7926Z" fill="#051B32"/>
<path d="M91.5744 35.9564H85.4185V15.6908H91.5744V23.7262H106.065V15.6908H112.221V35.9564H106.065V27.921H91.5744V35.9564Z" fill="#051B32"/>
<path d="M141.056 22.8818V28.1661C141.056 28.4385 141.056 28.7109 141.029 28.9833C141.029 29.0378 141.029 29.1195 141.001 29.174C140.974 29.4463 140.947 29.6915 140.892 29.9094C140.892 29.9639 140.892 30.0184 140.865 30.0728C140.702 30.8355 140.457 31.5437 140.075 32.143C140.048 32.1974 140.048 32.2247 140.021 32.2792C139.912 32.4426 139.776 32.6333 139.639 32.8239C139.612 32.8512 139.558 32.9057 139.531 32.9601C138.904 33.6956 138.114 34.3221 137.134 34.7851C137.079 34.8124 137.025 34.8396 136.97 34.8668C136.752 34.9758 136.507 35.0575 136.262 35.1665C136.207 35.1665 136.153 35.1937 136.098 35.2209C135.281 35.4933 134.382 35.684 133.347 35.8202C133.32 35.8202 133.266 35.8202 133.211 35.8202C132.912 35.8747 132.585 35.9019 132.231 35.9019C132.149 35.9292 132.067 35.9292 131.985 35.9292C131.631 35.9564 131.277 35.9564 130.923 35.9564H125.312C121.907 36.0109 119.292 35.3571 117.522 34.0769C117.44 34.0224 117.358 33.9407 117.276 33.8862C117.14 33.7773 116.977 33.6411 116.841 33.5321C116.732 33.4232 116.623 33.287 116.514 33.178C116.432 33.0691 116.35 32.9874 116.269 32.9057C116.16 32.7422 116.051 32.5788 115.942 32.4154C115.887 32.3336 115.833 32.2792 115.778 32.1974C115.669 32.0068 115.588 31.8161 115.479 31.5982C115.452 31.5437 115.424 31.4892 115.397 31.4348C115.315 31.1896 115.234 30.9717 115.152 30.7266C115.125 30.6721 115.125 30.6448 115.097 30.5904C115.043 30.318 114.961 30.0728 114.934 29.7732C114.907 29.746 114.907 29.7187 114.907 29.6915C114.852 29.3919 114.825 29.0922 114.798 28.7926C114.798 28.7654 114.798 28.7654 114.798 28.7381V23.4811C114.798 23.2087 114.798 22.9363 114.825 22.6911C114.825 22.6094 114.825 22.5549 114.852 22.4732C114.879 22.2281 114.907 21.9829 114.961 21.7378C114.961 21.6833 114.961 21.6288 114.988 21.5744C115.152 20.8117 115.397 20.1307 115.778 19.5042C115.778 19.4497 115.806 19.4225 115.833 19.3953C115.942 19.2046 116.078 19.0139 116.214 18.8505C116.241 18.796 116.296 18.7415 116.323 18.7143C116.95 17.9516 117.74 17.3251 118.72 16.8621C118.775 16.8348 118.829 16.8076 118.884 16.7803C119.101 16.6714 119.347 16.5897 119.592 16.4807C119.646 16.4807 119.701 16.4535 119.755 16.4535C120.572 16.1538 121.471 15.9632 122.506 15.827C122.534 15.827 122.588 15.827 122.615 15.827C122.942 15.7725 123.269 15.7453 123.623 15.7453C123.705 15.7453 123.787 15.718 123.868 15.718C124.222 15.718 124.576 15.6908 124.931 15.6908H130.542C133.947 15.6636 136.562 16.29 138.332 17.5703C138.414 17.6247 138.495 17.7065 138.577 17.7609C138.713 17.8971 138.877 18.0061 139.013 18.1423C139.122 18.2512 139.231 18.3602 139.34 18.4691C139.422 18.5781 139.503 18.6598 139.585 18.7688C139.694 18.905 139.803 19.0684 139.912 19.2318C139.966 19.3135 140.021 19.3953 140.075 19.4497C140.184 19.6404 140.266 19.8583 140.375 20.049C140.402 20.1035 140.429 20.1579 140.457 20.2397C140.538 20.4576 140.62 20.7027 140.702 20.9206C140.729 20.9751 140.729 21.0296 140.756 21.0568C140.811 21.3292 140.865 21.6016 140.92 21.874C140.92 21.9012 140.947 21.9285 140.947 21.9829C141.001 22.2553 141.029 22.5549 141.056 22.8818ZM134.873 27.4852C134.873 27.349 134.9 27.2128 134.9 27.0766L134.873 24.271C134.873 24.1076 134.845 23.9441 134.818 23.7807C134.818 23.7534 134.818 23.7535 134.818 23.7262C134.791 23.59 134.764 23.4266 134.709 23.2904C134.709 23.2904 134.709 23.2632 134.709 23.2359C134.655 23.0997 134.628 22.9908 134.573 22.8546C134.546 22.8273 134.546 22.8001 134.519 22.7729C134.464 22.6639 134.41 22.5549 134.355 22.446C134.328 22.4188 134.301 22.3643 134.273 22.337C134.219 22.2553 134.164 22.1736 134.11 22.0919C134.056 22.0374 134.028 21.9829 133.974 21.9285C133.919 21.874 133.865 21.7923 133.81 21.7378C133.729 21.6833 133.647 21.6288 133.565 21.5471C133.538 21.5199 133.484 21.4926 133.456 21.4382C132.503 20.7572 131.114 20.4303 129.316 20.4576H126.347C126.156 20.4576 125.966 20.4576 125.775 20.4576C125.72 20.4848 125.693 20.4848 125.639 20.4848C125.475 20.4848 125.285 20.512 125.121 20.512C125.094 20.512 125.067 20.5393 125.04 20.5393C124.495 20.5938 124.032 20.7027 123.596 20.8389C123.569 20.8661 123.541 20.8661 123.514 20.8661C123.378 20.9206 123.242 20.9751 123.133 21.0296C123.106 21.0568 123.078 21.0568 123.051 21.0841C122.534 21.3292 122.098 21.6561 121.771 22.0374C121.744 22.0646 121.744 22.0919 121.716 22.1191C121.635 22.2008 121.58 22.3098 121.526 22.4188C121.499 22.4188 121.498 22.446 121.471 22.4732C121.281 22.8001 121.144 23.1814 121.063 23.5628C121.063 23.59 121.063 23.6173 121.035 23.6445C121.008 23.7807 121.008 23.9169 120.981 24.0531C120.981 24.0803 120.981 24.1076 120.981 24.162C120.954 24.2982 120.954 24.4344 120.954 24.5978L120.981 27.3762C120.981 27.3762 120.981 27.3762 120.981 27.4034C120.981 27.5669 121.008 27.7031 121.035 27.8665C121.035 27.8937 121.035 27.8937 121.035 27.921C121.063 28.0572 121.09 28.2206 121.117 28.3568C121.144 28.384 121.144 28.384 121.144 28.4113C121.199 28.5475 121.226 28.6837 121.281 28.7926C121.308 28.8198 121.308 28.8471 121.335 28.8743C121.39 28.9833 121.417 29.0922 121.498 29.2012C121.526 29.2284 121.553 29.2829 121.553 29.3101C121.635 29.3919 121.689 29.5008 121.744 29.5825C121.798 29.6098 121.825 29.6642 121.88 29.7187C121.934 29.7732 121.989 29.8549 122.043 29.9094C122.125 29.9639 122.207 30.0456 122.288 30.1001C122.316 30.1273 122.37 30.1818 122.397 30.209C123.351 30.89 124.74 31.2169 126.538 31.1896H129.507C129.697 31.1896 129.888 31.1896 130.079 31.1896C130.133 31.1896 130.16 31.1896 130.215 31.1624C130.378 31.1624 130.569 31.1351 130.732 31.1351C130.76 31.1351 130.787 31.1351 130.814 31.1079C131.332 31.0534 131.822 30.9445 132.258 30.8083C132.285 30.781 132.312 30.781 132.34 30.781C132.476 30.7266 132.612 30.6721 132.721 30.6176C132.748 30.6176 132.775 30.5904 132.803 30.5631C133.32 30.318 133.756 29.9911 134.083 29.6098C134.11 29.5825 134.11 29.5553 134.137 29.5281C134.219 29.4463 134.273 29.3374 134.328 29.2284C134.355 29.2284 134.355 29.2012 134.382 29.174C134.573 28.8471 134.709 28.493 134.791 28.0844C134.791 28.0572 134.791 28.0299 134.818 28.0027C134.818 27.8665 134.845 27.7303 134.873 27.5941C134.873 27.5669 134.873 27.5396 134.873 27.4852Z" fill="#051B32"/>
<path d="M149.802 35.9564H143.647V15.6908H149.802V35.9564Z" fill="#051B32"/>
<path d="M152.384 28.7926C152.384 28.7654 152.384 28.7654 152.384 28.7381V23.4811C152.384 23.2087 152.384 22.9363 152.411 22.6911C152.411 22.6094 152.411 22.5549 152.438 22.4732C152.466 22.2281 152.493 21.9829 152.547 21.7378C152.547 21.6833 152.547 21.6288 152.575 21.5744C152.738 20.8117 152.983 20.1307 153.365 19.5042C153.365 19.4497 153.392 19.4225 153.419 19.3953C153.528 19.2046 153.664 19.0139 153.8 18.8505C153.828 18.796 153.882 18.7415 153.909 18.7143C154.536 17.9516 155.326 17.3251 156.306 16.8621C156.361 16.8348 156.415 16.8076 156.47 16.7803C156.688 16.6714 156.933 16.5897 157.178 16.508C157.232 16.4807 157.287 16.4535 157.341 16.4535C158.159 16.1538 159.057 15.9632 160.093 15.827C160.12 15.827 160.174 15.827 160.202 15.827C160.528 15.7725 160.855 15.7453 161.209 15.7453C161.291 15.7453 161.373 15.718 161.454 15.718C161.809 15.718 162.163 15.6908 162.517 15.6908H168.836C172.241 15.6636 174.856 16.29 176.626 17.5703C176.708 17.6247 176.79 17.7065 176.872 17.7609C177.008 17.8971 177.144 18.0061 177.28 18.1423C177.416 18.2512 177.498 18.3602 177.607 18.4964C177.689 18.5781 177.798 18.6598 177.852 18.7688C177.988 18.905 178.097 19.0684 178.206 19.2318C178.261 19.3135 178.315 19.3953 178.342 19.4497C178.451 19.6404 178.56 19.8583 178.642 20.049C178.669 20.1035 178.697 20.1852 178.724 20.2397C178.833 20.4576 178.914 20.7027 178.996 20.9479C178.996 20.9751 179.023 21.0296 179.023 21.0568C179.105 21.3292 179.16 21.6016 179.214 21.874C179.214 21.9012 179.214 21.9285 179.214 21.9829C179.269 22.2553 179.296 22.5549 179.323 22.8818V23.7262H173.113C173.085 23.59 173.058 23.4538 173.004 23.2904C173.004 23.2904 173.004 23.2632 172.976 23.2359C172.949 23.0997 172.895 22.9908 172.84 22.8546C172.84 22.8273 172.813 22.8001 172.813 22.7729C172.759 22.6639 172.704 22.5549 172.65 22.446C172.622 22.4188 172.595 22.3643 172.568 22.337C172.513 22.2553 172.459 22.1736 172.377 22.0919C172.35 22.0374 172.295 21.9829 172.268 21.9285C172.214 21.874 172.159 21.8195 172.078 21.7378C172.023 21.6833 171.941 21.6288 171.86 21.5471C171.805 21.5199 171.778 21.4926 171.723 21.4382C170.797 20.7572 169.408 20.4303 167.583 20.4576H163.933C163.743 20.4576 163.552 20.4576 163.361 20.4848C163.307 20.4848 163.279 20.4848 163.225 20.4848C163.062 20.4848 162.871 20.512 162.707 20.512C162.68 20.512 162.653 20.5393 162.626 20.5393C162.081 20.5938 161.618 20.7027 161.182 20.8661C161.155 20.8661 161.128 20.8661 161.1 20.8661C160.964 20.9206 160.828 20.9751 160.719 21.0296C160.692 21.0568 160.665 21.0568 160.637 21.0841C160.12 21.3292 159.684 21.6561 159.357 22.0374C159.33 22.0646 159.33 22.0919 159.303 22.1191C159.221 22.2281 159.166 22.3098 159.112 22.4188C159.085 22.4188 159.085 22.446 159.057 22.4732C158.867 22.8001 158.731 23.1814 158.649 23.59C158.649 23.59 158.649 23.6173 158.622 23.6445C158.594 23.7807 158.594 23.9169 158.567 24.0531C158.567 24.0803 158.567 24.1348 158.567 24.162C158.567 24.2982 158.54 24.4344 158.54 24.5978L158.567 27.3762C158.567 27.3762 158.567 27.3762 158.567 27.4034C158.567 27.5669 158.594 27.7031 158.622 27.8665C158.622 27.8937 158.622 27.8937 158.622 27.921C158.649 28.0572 158.676 28.2206 158.703 28.3568C158.731 28.384 158.731 28.4113 158.731 28.4113C158.785 28.5475 158.812 28.6837 158.867 28.7926C158.894 28.8198 158.894 28.8471 158.921 28.8743C158.976 28.9833 159.003 29.0922 159.085 29.2012C159.112 29.2284 159.139 29.2829 159.166 29.3101C159.221 29.3919 159.275 29.5008 159.33 29.5825C159.384 29.6098 159.412 29.6642 159.466 29.7187C159.521 29.7732 159.575 29.8549 159.629 29.9094C159.711 29.9639 159.793 30.0456 159.875 30.1001C159.902 30.1273 159.956 30.1818 159.984 30.209C160.937 30.89 162.326 31.2169 164.124 31.1896H167.801C167.992 31.1896 168.182 31.1896 168.373 31.1896C168.4 31.1896 168.455 31.1896 168.482 31.1624C168.673 31.1624 168.863 31.1624 169.027 31.1351C169.054 31.1351 169.054 31.1351 169.081 31.1351C169.626 31.0534 170.116 30.9445 170.552 30.8083C170.579 30.781 170.607 30.781 170.634 30.781C170.77 30.7266 170.879 30.6721 171.015 30.6176C171.042 30.6176 171.07 30.5904 171.097 30.5904C171.615 30.318 172.05 29.9911 172.377 29.6098C172.377 29.5825 172.404 29.5553 172.432 29.5281C172.486 29.4463 172.568 29.3374 172.622 29.2284C172.622 29.2284 172.65 29.2012 172.65 29.174C172.84 28.8471 172.976 28.493 173.085 28.0844C173.085 28.0572 173.085 28.0299 173.085 28.0027C173.085 27.9754 173.085 27.9482 173.113 27.921H179.35V28.1661C179.35 28.4385 179.323 28.7109 179.323 28.9833C179.296 29.0378 179.296 29.1195 179.296 29.174C179.269 29.4463 179.241 29.6915 179.187 29.9094C179.187 29.9639 179.16 30.0184 179.16 30.0728C178.996 30.8355 178.724 31.5437 178.37 32.143C178.342 32.1974 178.315 32.2247 178.315 32.2792C178.179 32.4426 178.07 32.6333 177.934 32.8239C177.879 32.8512 177.852 32.9057 177.825 32.9601C177.198 33.6956 176.409 34.3221 175.428 34.7851C175.373 34.8124 175.319 34.8396 175.264 34.8668C175.019 34.9758 174.801 35.0575 174.529 35.1665C174.502 35.1665 174.447 35.1937 174.393 35.2209C173.576 35.4933 172.65 35.684 171.642 35.8202C171.587 35.8202 171.56 35.8202 171.506 35.8202C171.179 35.8747 170.852 35.9019 170.525 35.9292C170.443 35.9292 170.362 35.9292 170.28 35.9292C169.926 35.9564 169.572 35.9564 169.19 35.9564H162.898C159.493 36.0109 156.878 35.3844 155.108 34.0769C155.026 34.0224 154.944 33.9407 154.863 33.8862C154.727 33.7773 154.563 33.6411 154.427 33.5321C154.318 33.4232 154.209 33.287 154.1 33.178C154.018 33.0691 153.937 32.9874 153.855 32.9057C153.746 32.7422 153.637 32.5788 153.528 32.4154C153.474 32.3336 153.419 32.2792 153.365 32.1974C153.256 32.0068 153.174 31.8161 153.065 31.5982C153.038 31.5437 153.01 31.4892 152.983 31.4348C152.902 31.1896 152.82 30.9717 152.738 30.7266C152.711 30.6721 152.711 30.6448 152.684 30.5904C152.629 30.318 152.547 30.0728 152.52 29.7732C152.493 29.746 152.493 29.7187 152.493 29.6915C152.438 29.3919 152.411 29.0922 152.384 28.7926Z" fill="#051B32"/>
<path d="M205 35.9564H181.738V15.6908H205V19.8856H187.894V23.7262H203.693V27.921H187.894V31.7616H205V35.9564Z" fill="#051B32"/>
</svg>
