<svg width="17" height="19" viewBox="0 0 17 19" fill="none" xmlns="http://www.w3.org/2000/svg">
<path fill-rule="evenodd" clip-rule="evenodd" d="M5.82904 2.28711C5.82904 2.0049 6.05781 1.77613 6.34002 1.77613H10.6582C10.9404 1.77613 11.1692 2.0049 11.1692 2.28711V3.24671H12.0664V2.28711C12.0664 1.50938 11.4359 0.878906 10.6582 0.878906H6.34002C5.56229 0.878906 4.93181 1.50938 4.93181 2.28711V3.24671H5.82904V2.28711ZM15.4567 4.14412H1.5426C1.50815 4.14412 1.48023 4.17204 1.48023 4.20649V6.12568C1.48023 6.16013 1.50816 6.18806 1.5426 6.18806H15.4567C15.4912 6.18806 15.5191 6.16013 15.5191 6.12569V4.20649C15.5191 4.17204 15.4912 4.14412 15.4567 4.14412ZM1.5426 3.2469C1.01263 3.2469 0.583008 3.67652 0.583008 4.20649V6.12568C0.583008 6.65565 1.01263 7.08528 1.5426 7.08528H2.08283L2.09788 7.26337L3.01588 18.1212H14.017L14.9033 7.26337L14.9179 7.08528H15.4567C15.9867 7.08528 16.4163 6.65566 16.4163 6.12569V4.20649C16.4163 3.67652 15.9867 3.2469 15.4567 3.2469H1.5426ZM3.84045 17.224L2.99831 7.26337H14.0031L13.19 17.224H3.84045ZM6.34115 15.3047C6.09389 15.3047 5.89345 15.1042 5.89345 14.857V9.48467C5.89345 9.23741 6.09389 9.03697 6.34115 9.03697C6.5884 9.03697 6.78884 9.23741 6.78884 9.48467V14.857C6.78884 15.1042 6.5884 15.3047 6.34115 15.3047ZM10.2105 14.857C10.2105 15.1042 10.4109 15.3047 10.6582 15.3047C10.9055 15.3047 11.1059 15.1042 11.1059 14.857V9.48467C11.1059 9.23741 10.9055 9.03697 10.6582 9.03697C10.4109 9.03697 10.2105 9.23741 10.2105 9.48467V14.857Z" fill="#706F6F"/>
</svg>
