<svg width="41" height="51" viewBox="0 0 41 51" fill="none" xmlns="http://www.w3.org/2000/svg">
<path d="M22.6219 4.37657C25.9263 0.021233 30.5202 0 30.5202 0C30.5202 0 31.2036 4.09475 27.9208 8.03931C24.4156 12.2512 20.4315 11.562 20.4315 11.562C20.4315 11.562 19.6834 8.24949 22.6219 4.37657ZM20.8517 14.4304C22.5517 14.4304 25.7068 12.0936 29.8135 12.0936C36.8825 12.0936 39.6635 17.1237 39.6635 17.1237C39.6635 17.1237 34.2244 19.9045 34.2244 26.6522C34.2244 34.2641 41 36.8874 41 36.8874C41 36.8874 36.2636 50.2185 29.8661 50.2185C26.9278 50.2185 24.6434 48.2384 21.5474 48.2384C18.3924 48.2384 15.2614 50.2924 13.2222 50.2924C7.38034 50.2926 0 37.6466 0 27.4813C0 17.4802 6.24697 12.2337 12.1064 12.2337C15.9155 12.2337 18.8715 14.4304 20.8517 14.4304Z" fill="#999999"/>
</svg>
