<svg width="108" height="27" viewBox="0 0 108 27" fill="none" xmlns="http://www.w3.org/2000/svg">
<path d="M40.1907 26.4536C37.9053 26.1891 36.0581 25.3446 34.5739 23.8865C32.7387 22.0844 31.7646 19.6547 31.7646 16.8784C31.7646 11.2978 35.7821 7.20653 41.252 7.21543C42.6942 7.21797 44.1326 7.55436 45.4025 8.18771C46.0078 8.48975 46.7823 9.00546 47.1919 9.37936C47.347 9.52116 47.4888 9.6369 47.5066 9.6369C47.5244 9.6369 47.5397 9.16443 47.5397 8.58768V7.53719H49.9084V26.2196H47.5397V24.0569L47.3235 24.2363C45.735 25.5526 44.289 26.1935 42.3725 26.432C41.9528 26.4841 40.571 26.4981 40.1907 26.4536ZM42.375 23.9806C45.2384 23.4999 47.2237 21.4771 47.7896 18.463C47.9212 17.7642 47.9244 16.006 47.796 15.3173C47.6459 14.5142 47.4449 13.898 47.1111 13.2176C46.1255 11.2094 44.3889 9.99236 42.0749 9.68713C41.2736 9.58094 40.1036 9.64898 39.338 9.84547C37.1054 10.4184 35.3834 12.0361 34.6038 14.2941C34.2801 15.2321 34.2146 15.667 34.2146 16.8784C34.2146 17.81 34.2318 18.0306 34.3399 18.5158C34.9885 21.4136 37.0679 23.4808 39.8365 23.9825C40.4114 24.0862 41.7506 24.0856 42.375 23.9806ZM19.5307 26.3786C17.9473 26.2126 16.4848 25.6982 15.234 24.8683C14.5345 24.4041 13.4408 23.3041 12.9639 22.5855C11.7989 20.8292 11.24 18.7218 11.322 16.3939C11.397 14.2776 11.9859 12.4704 13.1292 10.8489C13.2958 10.6117 13.7238 10.1259 14.0786 9.76852C15.3472 8.4942 16.8746 7.68726 18.7155 7.31908C19.4569 7.17092 21.116 7.11496 21.8873 7.21161C25.4406 7.65928 28.1025 10.0388 29.0169 13.5864C29.2394 14.4506 29.3399 15.1863 29.3787 16.2457L29.4124 17.1741H13.7123L13.7479 17.726C13.9069 20.1799 15.3306 22.3782 17.4564 23.4516C18.4611 23.959 19.4194 24.1797 20.6244 24.1809C22.6911 24.1835 24.2522 23.5451 25.5526 22.1677C25.8775 21.8237 26.6107 20.8387 26.7372 20.5774C26.7531 20.5449 28.8039 21.8873 28.8039 21.9299C28.8039 22.0603 27.9639 23.1781 27.5003 23.6633C25.7885 25.4565 23.6671 26.3404 20.9163 26.4059C20.4127 26.4186 19.7895 26.4059 19.5307 26.3786ZM26.9464 14.8461C26.5007 12.0393 24.5854 10.0044 21.8854 9.46966C21.3169 9.3571 19.8474 9.36982 19.2744 9.49255C17.9136 9.78442 16.7786 10.3733 15.8355 11.2775C14.8372 12.2351 14.1721 13.4376 13.816 14.9269L13.7803 15.075H26.982L26.9464 14.8461ZM98.1749 26.3748C94.0499 25.9907 90.9874 23.1953 90.1576 19.0589C89.5936 16.2438 90.1169 13.3085 91.5712 11.1389C92.9638 9.05951 94.9484 7.77374 97.5161 7.28411C98.241 7.14612 100.397 7.14675 101.082 7.28601C102.795 7.63385 104.212 8.37974 105.392 9.55614C107.093 11.2514 108 13.6494 108 16.4454V17.1741L100.18 17.1881L92.3603 17.2014L92.3743 17.6326C92.4315 19.3285 93.2328 21.102 94.4912 22.3146C95.4666 23.2551 96.65 23.8503 98.0305 24.0964C98.6442 24.2051 99.9624 24.2045 100.58 24.0964C102.493 23.7568 103.879 22.8163 105.064 21.0511C105.233 20.7993 105.392 20.599 105.416 20.606C105.48 20.6225 107.315 21.8027 107.393 21.8778C107.475 21.956 106.97 22.7171 106.38 23.4052C104.493 25.5983 101.493 26.6844 98.1749 26.3748ZM105.577 14.9269C105.577 14.8455 105.53 14.5828 105.472 14.3431C104.825 11.6431 102.919 9.84547 100.275 9.4404C99.2667 9.28588 98.0642 9.39208 97.0443 9.72655C94.8384 10.4496 93.1329 12.2777 92.5473 14.5453C92.4888 14.7723 92.4411 14.9841 92.4411 15.0159C92.4411 15.0578 94.3297 15.075 99.0092 15.075H105.578L105.577 14.9269H105.577ZM0 16.8511V7.48378H11.1986V9.69031L6.79702 9.7043L2.39603 9.71765L2.38204 17.9689L2.36869 26.2196H0V16.8511ZM54.0537 13.0821V0H56.4765V26.1656H54.0537V13.0821ZM60.6225 16.8237V7.4825H62.9911L62.9937 8.70786L62.9962 9.93258L63.1959 9.69095C63.8541 8.891 64.5325 8.32824 65.3007 7.9448C66.2164 7.48696 67.0221 7.28729 68.1597 7.2326C69.4721 7.17092 70.5398 7.3744 71.5788 7.88439C72.6808 8.42489 73.4738 9.20195 74.2209 10.4744C74.2718 10.5621 74.3036 10.5379 74.4976 10.2531C75.5156 8.76191 77.0303 7.77565 78.9278 7.36868C79.6801 7.20716 81.3327 7.19063 82.0615 7.33689C83.3936 7.60587 84.4429 8.14701 85.3109 9.01436C86.2348 9.93767 86.802 11.0498 87.1505 12.6186L87.2948 13.2704L87.3126 19.7183L87.3298 26.1649H84.9573V20.4101C84.9573 16.8218 84.9363 14.4455 84.9013 14.0977C84.6801 11.8873 83.5361 10.29 81.748 9.69349C81.0463 9.46235 80.3029 9.38556 79.5688 9.46838C77.2624 9.71829 75.7719 10.9659 75.2511 13.0821C75.1404 13.5311 75.1379 13.6621 75.1195 19.8524L75.1004 26.1649H72.7362V20.5201C72.7362 17.1461 72.7139 14.6019 72.6808 14.1962C72.4608 11.4822 70.9709 9.76217 68.5908 9.47284C66.4192 9.20831 64.165 10.4763 63.3473 12.4234C63.0051 13.2354 63.0249 12.8144 63.0051 19.7997L62.9873 26.1656H60.6218V16.8243L60.6225 16.8237Z" fill="#676C73"/>
</svg>
