<svg width="109" height="17" viewBox="0 0 109 17" fill="none" xmlns="http://www.w3.org/2000/svg">
<path d="M90.0004 0.520476L90.2088 12.753H90.1044L86.5651 0.520476H80.7349V15.9281H84.5867L84.3787 3.27954H84.4832L88.2827 15.9281H93.8526V0.520476H90.0004ZM16.657 0.520476L13.7422 16.0848H17.9587L20.0928 1.92612H20.1968L22.2791 16.0843H26.4434L23.5803 0.520476H16.657ZM40.1851 0.520476L38.2595 12.3888H38.155L36.2293 0.520476H29.8787L29.5662 16.0848H33.4703L33.5747 2.0819H33.6265L36.2289 16.0843H40.1851L42.7879 2.08235H42.8924L42.996 16.0843H46.9L46.5357 0.520476H40.1851ZM7.18355 11.6598C7.33933 12.0241 7.28756 12.545 7.23533 12.8052C7.13132 13.3257 6.76708 13.8462 5.72568 13.8462C4.73696 13.8462 4.16425 13.2739 4.16425 12.4405V10.9313H0V12.1285C0 15.6161 2.75861 16.657 5.6739 16.657C8.48474 16.657 10.8269 15.6678 11.1916 13.1172C11.3996 11.7638 11.2434 10.8791 11.1916 10.5666C10.4626 7.28756 4.52895 6.35061 4.11202 4.5285C4.06025 4.21603 4.06025 3.90402 4.11202 3.69556C4.21648 3.17508 4.58072 2.65461 5.51767 2.65461C6.45462 2.65461 6.97555 3.22685 6.97555 4.06025V4.9972H10.8791V3.90402C10.8791 0.520475 7.80803 0 5.62168 0C2.86307 0 0.572704 0.936946 0.156233 3.43532C0.051775 4.11203 0 4.73696 0.208008 5.51767C0.832942 8.74498 6.4033 9.68192 7.18355 11.6598ZM57.8318 11.6598C57.9875 12.0245 57.9353 12.4928 57.8835 12.8052C57.7791 13.3257 57.4148 13.8462 56.3739 13.8462C55.3847 13.8462 54.8125 13.2739 54.8125 12.4405V10.9313H50.6478V12.1285C50.6478 15.5638 53.3546 16.6052 56.2699 16.6052C59.0807 16.6052 61.3711 15.6683 61.7353 13.0655C61.9438 11.7121 61.7876 10.8791 61.7353 10.5149C61.1108 7.28756 55.2285 6.29838 54.8125 4.52895C54.7602 4.21648 54.7602 3.90402 54.8125 3.69556C54.9165 3.17508 55.2807 2.65461 56.2177 2.65461C57.1024 2.65461 57.6755 3.22685 57.6755 4.06025V4.9972H61.5269V3.90402C61.5269 0.520475 58.508 0 56.3221 0C53.5631 0 51.3245 0.884717 50.9084 3.43532C50.804 4.11203 50.804 4.73696 50.9602 5.51767C51.5852 8.74498 57.0506 9.62969 57.8318 11.6598ZM70.949 13.7422C72.0422 13.7422 72.3542 13.0132 72.4582 12.5968C72.5104 12.441 72.5104 12.1803 72.5104 12.0245V0.520476H76.4662V11.7121C76.4662 12.0245 76.4662 12.5968 76.4144 12.753C76.1542 15.6683 73.8638 16.6052 71.0008 16.6052C68.1382 16.6052 65.8478 15.6683 65.5871 12.753C65.5871 12.5968 65.5353 12.0245 65.5353 11.7121V0.520476H69.4911V12.0245C69.4911 12.2325 69.4911 12.4405 69.5434 12.5968C69.5434 13.0132 69.8558 13.7422 70.949 13.7422ZM103.43 13.5859C104.576 13.5859 104.94 12.857 105.044 12.4405C105.096 12.2848 105.096 12.0241 105.096 11.8683V9.6297H103.482V7.33933H109V11.504C109 11.8161 109 12.0241 108.948 12.545C108.688 15.4076 106.241 16.3968 103.482 16.3968C100.723 16.3968 98.2771 15.4076 98.0169 12.545C97.9647 12.0241 97.9647 11.8161 97.9647 11.5036V4.94542C97.9647 4.68473 98.0169 4.16425 98.0169 3.90402C98.3811 0.988721 100.724 0.051776 103.482 0.051776C106.241 0.051776 108.636 0.988721 108.948 3.90402C109 4.37226 109 4.94497 109 4.94497V5.46544H105.096V4.58073C105.096 4.58073 105.096 4.21603 105.044 4.00802C104.992 3.64378 104.68 2.86307 103.482 2.86307C102.337 2.86307 102.024 3.59155 101.921 4.00802C101.869 4.21603 101.869 4.47672 101.869 4.73696V11.8683C101.869 12.0763 101.869 12.2843 101.921 12.4405C101.921 12.857 102.337 13.5859 103.43 13.5859Z" fill="black"/>
</svg>
