<svg width="104" height="29" viewBox="0 0 104 29" fill="none" xmlns="http://www.w3.org/2000/svg">
<path fill-rule="evenodd" clip-rule="evenodd" d="M81.6598 11.5754C82.6128 11.3915 89.2169 11.5754 90.7383 11.5754C92.2112 11.467 93.6917 11.523 95.1522 11.7426C101.589 13.4145 101.539 23.446 94.567 24.6999C93.5304 24.8839 87.0434 24.6999 85.4718 24.6999C83.9981 24.7985 82.5182 24.7368 81.0579 24.516C80.1779 24.257 79.3607 23.8197 78.657 23.2313C77.9533 22.643 77.3781 21.9161 76.9672 21.096C76.5564 20.2759 76.3187 19.38 76.2688 18.4641C76.2189 17.5481 76.358 16.6318 76.6775 15.7719C77.0455 14.6764 77.7083 13.7036 78.5932 12.9603C79.4781 12.2171 80.5507 11.7321 81.6932 11.5586L81.6598 11.5754ZM103.913 19.3665C104.139 17.6016 103.923 15.8081 103.284 14.1475C102.645 12.4869 101.603 11.0113 100.252 9.85329C98.9705 8.76712 97.444 8.00961 95.8042 7.64635C93.6865 7.37775 91.5486 7.30499 89.4175 7.429H82.7298C80.8702 7.38578 79.0352 7.86045 77.4298 8.79998C75.9602 9.69123 74.7217 10.9169 73.8153 12.3772C72.9088 13.8375 72.3599 15.4911 72.2132 17.2036C72.0666 18.9161 72.3263 20.6391 72.9713 22.2322C73.6163 23.8254 74.6284 25.2437 75.9251 26.3719C79.2689 29.2309 82.5125 28.8129 86.7424 28.8129H93.4301C96.0462 28.8488 98.5794 27.8957 100.523 26.1443C102.467 24.3929 103.677 21.9722 103.913 19.3665ZM40.9485 10.3214C41.3728 11.3101 41.9358 12.2334 42.6204 13.0634L47.887 20.7877C48.8567 22.3091 50.1942 24.4993 51.3311 25.9539C51.9533 26.8921 52.8056 27.6552 53.8066 28.1703C54.8077 28.6855 55.924 28.9355 57.0491 28.8965C58.1268 28.8038 59.1659 28.4512 60.0773 27.8688C60.9888 27.2864 61.7454 26.4916 62.2822 25.5526C63.4191 23.8807 64.5727 22.2088 65.7765 20.4031L71.9292 11.2911C72.1999 10.9407 72.3581 10.5165 72.3829 10.0744C72.4076 9.63228 72.2978 9.19305 72.0678 8.81463C71.8379 8.4362 71.4986 8.13637 71.0948 7.95467C70.691 7.77297 70.2416 7.71793 69.8059 7.79682C69.3118 7.97526 68.8603 8.25476 68.4803 8.61749C68.1003 8.98021 67.8001 9.41818 67.5989 9.90344L64.1046 15.0864C62.951 16.7583 61.7806 18.5473 60.6103 20.2359C60.0084 21.1053 59.4734 21.9078 58.9384 22.8107C58.4034 23.7135 57.6677 24.817 56.3469 24.4826C55.3996 24.0194 54.6387 23.2467 54.1901 22.2924L52.5182 19.7176C51.3478 18.0457 50.2277 16.3738 49.0072 14.5681C47.7867 12.7624 46.7333 11.2243 45.5128 9.41859C45.3186 8.88405 44.9518 8.42946 44.4704 8.12668C43.989 7.82389 43.4204 7.69018 42.8545 7.74667C42.5559 7.78064 42.2676 7.87568 42.0073 8.02588C41.7471 8.17607 41.5205 8.3782 41.3418 8.61971C41.163 8.86121 41.0358 9.13691 40.9682 9.42967C40.9005 9.72242 40.8938 10.026 40.9485 10.3214ZM0.0365741 10.2713C0.443015 11.2691 1.00755 12.195 1.7085 13.0132L8.71385 23.3123C10.3858 25.9205 12.0577 29.0302 16.1205 28.8965C19.7987 28.7627 21.3201 25.6864 23.1927 22.911L28.4592 15.1867C29.011 14.3508 29.6129 13.5148 30.2148 12.612C31.0068 11.815 31.4822 10.7574 31.5523 9.63594C31.5117 9.3452 31.4132 9.06559 31.2624 8.8137C31.1117 8.56182 30.9118 8.34281 30.6748 8.16969C30.4377 7.99657 30.1682 7.87288 29.8824 7.80595C29.5966 7.73902 29.3003 7.73023 29.011 7.7801C28.5098 7.93909 28.0502 8.2076 27.6656 8.56618C27.281 8.92476 26.981 9.36442 26.7873 9.85329C25.5668 11.6422 24.4801 13.2138 23.2763 15.0864C22.0725 16.959 20.969 18.4302 19.7652 20.1022C19.1466 20.9883 18.6283 21.7741 18.0933 22.6769C17.8958 23.1928 17.548 23.6375 17.095 23.9535C16.6419 24.2695 16.1043 24.4421 15.552 24.4492C14.5669 24.0229 13.7788 23.2408 13.3451 22.2589C10.4526 18.1293 7.44319 13.5984 4.5842 9.36843C4.38593 8.84016 4.02067 8.39103 3.54389 8.08927C3.06711 7.78751 2.50486 7.64961 1.94256 7.69651C1.64402 7.73048 1.35566 7.82552 1.09542 7.97572C0.835176 8.12591 0.608622 8.32805 0.429847 8.56955C0.251073 8.81105 0.123902 9.08675 0.0562453 9.37951C-0.0114117 9.67227 -0.0181076 9.97581 0.0365741 10.2713ZM35.8157 7.79682C33.6756 8.24824 34.0267 10.0706 34.0267 12.3444V25.1179C33.8729 26.0771 34.0067 27.0603 34.4113 27.9435C34.6426 28.2824 34.9645 28.5496 35.3403 28.7145C35.716 28.8794 36.1306 28.9354 36.5366 28.8762C36.9427 28.8169 37.324 28.6448 37.6369 28.3794C37.9499 28.114 38.182 27.7659 38.3069 27.375C38.5075 26.7063 38.4072 19.0154 38.4072 17.8952V11.4918C38.557 10.5396 38.4293 9.56443 38.0393 8.68294C37.8059 8.33047 37.4733 8.05504 37.0835 7.89138C36.6937 7.72773 36.2642 7.68319 35.8491 7.76339L35.8157 7.79682ZM35.9327 0.0391093C35.6199 0.244661 35.3525 0.512087 35.1469 0.824912L33.475 2.39652C32.4718 3.38295 33.3078 3.83437 34.5952 5.05487L35.381 5.84068C36.4009 6.86055 36.7854 6.10818 38.1229 4.77065C39.9955 2.98169 39.9286 3.38295 37.0362 0.490528C36.931 0.301016 36.7644 0.15302 36.5638 0.0709536C36.3632 -0.0111125 36.1406 -0.0223449 35.9327 0.0391093Z" fill="#0072B8"/>
</svg>
